<svg viewBox="0 0 200 200" xmlns="http://www.w3.org/2000/svg" xmlns:xlink="http://www.w3.org/1999/xlink"><linearGradient id="a" gradientTransform="translate(0 -1000)" gradientUnits="userSpaceOnUse" x1="28.16" x2="12.07" y1="1037.45" y2="1007.48"><stop offset=".15" stop-color="#e95ca1"/><stop offset=".89" stop-color="#f89d63"/></linearGradient><linearGradient id="b" x1="72.49" x2="59.38" xlink:href="#a" y1="1036.7" y2="1006.65"/><linearGradient id="c" x1="121.1" x2="105.01" xlink:href="#a" y1="1037.46" y2="1007.49"/><linearGradient id="d" x1="164.5" x2="148.13" xlink:href="#a" y1="1034.61" y2="1007.85"/><linearGradient id="e" x1="205.09" x2="186.7" xlink:href="#a" y1="1027.53" y2="1009.06"/><linearGradient id="f" x1="28.16" x2="12.07" xlink:href="#a" y1="1060.45" y2="1030.48"/><linearGradient id="g" x1="72.47" x2="59.37" xlink:href="#a" y1="1059.71" y2="1029.66"/><linearGradient id="h" x1="121.1" x2="105.01" xlink:href="#a" y1="1060.46" y2="1030.49"/><linearGradient id="i" x1="164.5" x2="148.13" xlink:href="#a" y1="1057.61" y2="1030.85"/><linearGradient id="j" x1="205.09" x2="186.7" xlink:href="#a" y1="1050.53" y2="1032.06"/><linearGradient id="k" gradientTransform="matrix(1 0 0 -1 0 202)" gradientUnits="userSpaceOnUse" x1="14.03" x2="18.74" y1="141.12" y2="118.68"><stop offset=".24" stop-color="#f89d62"/><stop offset="1" stop-color="#eb5ba1"/></linearGradient><linearGradient id="l" x1="13.6" x2="18.31" xlink:href="#k" y1="109.76" y2="87.32"/><clipPath id="m"><path d="m50.6 59.98h30.35v20.56h-30.35z"/></clipPath><linearGradient id="n" gradientTransform="matrix(1 0 0 -1 0 202)" gradientUnits="userSpaceOnUse" x1="65.77" x2="65.77" y1="129.8" y2="121.46"><stop offset="0" stop-color="#fcb562"/><stop offset="1" stop-color="#eb5ba1"/></linearGradient><linearGradient id="o" x1="76.55" x2="76.55" xlink:href="#n" y1="138.09" y2="122.89"/><linearGradient id="p" x1="55" x2="55" xlink:href="#n" y1="138.09" y2="122.89"/><linearGradient id="q" x1="66.08" x2="67.24" xlink:href="#n" y1="137.11" y2="122.73"/><clipPath id="r"><path d="m47.42 94.35h30.35v20.56h-30.35z"/></clipPath><linearGradient id="s" x1="62.6" x2="62.6" xlink:href="#n" y1="95.44" y2="87.09"/><linearGradient id="t" x1="73.37" x2="73.37" xlink:href="#n" y1="103.73" y2="88.52"/><linearGradient id="u" x1="51.82" x2="51.82" xlink:href="#n" y1="103.73" y2="88.52"/><linearGradient id="v" x1="62.9" x2="64.06" xlink:href="#n" y1="102.75" y2="88.36"/><path d="m25.1 4.48c.8 0 1.5.7 1.5 1.5v18c0 .8-.7 1.5-1.5 1.5h-18c-.8 0-1.5-.7-1.5-1.5v-18c0-.8.7-1.5 1.5-1.5zm-13.2 18v-10h-3.1v10zm-1.5-11.4c1 0 1.8-.8 1.8-1.8s-.8-1.8-1.8-1.8-1.8.8-1.8 1.8.8 1.8 1.8 1.8zm13.2 11.4v-5.5c0-2.7-.6-4.8-3.8-4.8-1.5 0-2.5.8-3 1.6v-1.3h-3v10h3.1v-4.9c0-1.3.2-2.6 1.9-2.6 1.6 0 1.6 1.5 1.6 2.6v4.9z" fill="url(#a)"/><path d="m72.1 9.28v.7c0 6.5-4.9 14-14 14-2.8 0-5.4-.8-7.5-2.2.4 0 .8.1 1.2.1 2.3 0 4.4-.8 6.1-2.1-2.2 0-4-1.5-4.6-3.4.3 0 .6.1.9.1.4 0 .9-.1 1.3-.2-2.2-.5-3.9-2.4-3.9-4.8.7.4 1.5.6 2.2.6-1.4-1-2.2-2.5-2.2-4.2 0-.9.2-1.8.7-2.5 2.4 3 6.1 4.9 10.2 5.2-.1-.4-.1-.8-.1-1.1 0-2.7 2.2-4.9 4.9-4.9 1.4 0 2.7.6 3.6 1.5 1.1-.2 2.2-.7 3.1-1.2-.4 1.2-1.1 2.1-2.2 2.7 1-.1 2-.4 2.8-.8-.7 1-1.5 1.8-2.5 2.5z" fill="url(#b)"/><path d="m109.1 9.58c3 0 5.4 2.4 5.4 5.4s-2.4 5.4-5.4 5.4-5.4-2.4-5.4-5.4 2.4-5.4 5.4-5.4zm0 8.9c1.9 0 3.5-1.5 3.5-3.5s-1.5-3.5-3.5-3.5-3.5 1.5-3.5 3.5 1.6 3.5 3.5 3.5zm6.8-9.1c0-.7-.6-1.3-1.3-1.3s-1.3.6-1.3 1.3.6 1.3 1.3 1.3c.8 0 1.3-.6 1.3-1.3zm3.6 1.3c.1 1.7.1 6.9 0 8.7-.1 1.7-.5 3.1-1.7 4.4-1.2 1.2-2.7 1.6-4.4 1.7s-6.9.1-8.7 0c-1.7-.1-3.1-.5-4.4-1.7-1.2-1.3-1.6-2.7-1.7-4.4s-.1-6.9 0-8.7c.1-1.7.5-3.2 1.7-4.4 1.3-1.2 2.7-1.6 4.4-1.7s6.9-.1 8.7 0c1.7.1 3.2.5 4.4 1.7s1.6 2.7 1.7 4.4zm-2.3 10.5c.6-1.4.4-4.6.4-6.2 0-1.5.1-4.8-.4-6.2-.4-.9-1.1-1.6-2-2-1.4-.6-4.7-.4-6.2-.4s-4.8-.1-6.2.4c-.9.4-1.6 1.1-2 2-.6 1.4-.4 4.7-.4 6.2s-.1 4.8.4 6.2c.4.9 1.1 1.6 2 2 1.4.6 4.6.4 6.2.4 1.5 0 4.8.1 6.2-.4 1-.4 1.7-1.1 2-2z" fill="url(#c)"/><path d="m156.1 11.08v7.3c0 2.9-2.1 5.4-4.9 6-2.6.5-5.2-.5-6.6-2.7-1.8-2.7-1.1-6.4 1.5-8.3 1.3-1 2.8-1.3 4.4-1.2.2 0 .3.1.3.3v2.9q0 .2-.2.1c-1.6-.4-3.3.6-3.6 2.2s.7 3.2 2.4 3.5c1.8.3 3.5-1.1 3.5-2.9v-13.6c0-.3 0-.2.2-.2h2.8c.2 0 .2.1.3.2.1 1.9 1.1 3.3 2.7 4.2.7.4 1.4.5 2.1.6.1 0 .2 0 .2.2v2.9q0 .2-.2.2c-1.7 0-3.2-.6-4.6-1.5-.2-.1-.2-.2-.3-.2z" fill="url(#d)"/><path d="m188.5 24.48q-.1 0 0 0c-.2-.1-.3-.2-.3-.4v-8.1c0-.1-.1-.2-.2-.2h-2.4c-.3 0-.4-.2-.4-.5v-3.1c0-.3.2-.5.5-.5h2.4q.1 0 .1-.1v-2.3c0-1 .2-1.8.7-2.7.5-.8 1.2-1.4 2.2-1.8.7-.2 1.4-.3 2.1-.3h2.5c.2.1.3.2.3.3v3.1c0 .3-.2.4-.4.4h-2.2c-.2 0-.3.1-.5.1-.3.2-.4.4-.4.7-.1.8 0 1.6 0 2.3 0 .1.1.1.1.1h2.8c.4 0 .6.2.6.6v3.1c0 .4-.2.5-.5.5h-2.8q-.1 0-.1.1v8.2c0 .2-.1.3-.3.4h-.1z" fill="url(#e)"/><g opacity=".8"><path d="m25.1 27.48c.8 0 1.5.7 1.5 1.5v18c0 .8-.7 1.5-1.5 1.5h-18c-.8 0-1.5-.7-1.5-1.5v-18c0-.8.7-1.5 1.5-1.5zm-13.2 18v-10h-3.1v10zm-1.5-11.4c1 0 1.8-.8 1.8-1.8s-.8-1.8-1.8-1.8-1.8.8-1.8 1.8.8 1.8 1.8 1.8zm13.2 11.4v-5.5c0-2.7-.6-4.8-3.8-4.8-1.5 0-2.5.8-3 1.6v-1.3h-3v10h3.1v-4.9c0-1.3.2-2.6 1.9-2.6 1.6 0 1.6 1.5 1.6 2.6v4.9z" fill="url(#f)"/><path d="m72.1 32.28v.7c0 6.5-4.9 14-14 14-2.8 0-5.4-.8-7.5-2.2.4 0 .8.1 1.2.1 2.3 0 4.4-.8 6.1-2.1-2.2 0-4-1.5-4.6-3.4.3 0 .6.1.9.1.4 0 .9-.1 1.3-.2-2.2-.5-3.9-2.4-3.9-4.8.7.4 1.5.6 2.2.6-1.4-.9-2.2-2.4-2.2-4.1 0-.9.2-1.8.7-2.5 2.4 3 6.1 4.9 10.2 5.2-.1-.4-.1-.8-.1-1.1 0-2.7 2.2-4.9 4.9-4.9 1.4 0 2.7.6 3.6 1.5 1.1-.2 2.2-.7 3.1-1.2-.4 1.2-1.1 2.1-2.2 2.7 1-.1 2-.4 2.8-.8-.7.9-1.5 1.7-2.5 2.4z" fill="url(#g)"/><path d="m109.1 32.58c3 0 5.4 2.4 5.4 5.4s-2.4 5.4-5.4 5.4-5.4-2.4-5.4-5.4 2.4-5.4 5.4-5.4zm0 8.9c1.9 0 3.5-1.5 3.5-3.5s-1.5-3.5-3.5-3.5-3.5 1.5-3.5 3.5 1.6 3.5 3.5 3.5zm6.8-9.1c0-.7-.6-1.3-1.3-1.3s-1.3.6-1.3 1.3.6 1.3 1.3 1.3c.8 0 1.3-.6 1.3-1.3zm3.6 1.3c.1 1.7.1 6.9 0 8.7-.1 1.7-.5 3.1-1.7 4.4-1.2 1.2-2.7 1.6-4.4 1.7s-6.9.1-8.7 0c-1.7-.1-3.1-.5-4.4-1.7-1.2-1.3-1.6-2.7-1.7-4.4s-.1-6.9 0-8.7c.1-1.7.5-3.2 1.7-4.4 1.3-1.2 2.7-1.6 4.4-1.7s6.9-.1 8.7 0c1.7.1 3.2.5 4.4 1.7s1.6 2.7 1.7 4.4zm-2.3 10.5c.6-1.4.4-4.6.4-6.2 0-1.5.1-4.8-.4-6.2-.4-.9-1.1-1.6-2-2-1.4-.6-4.7-.4-6.2-.4s-4.8-.1-6.2.4c-.9.4-1.6 1.1-2 2-.6 1.4-.4 4.7-.4 6.2s-.1 4.8.4 6.2c.4.9 1.1 1.6 2 2 1.4.6 4.6.4 6.2.4 1.5 0 4.8.1 6.2-.4 1-.4 1.7-1.1 2-2z" fill="url(#h)"/><path d="m156.1 34.08v7.3c0 2.9-2.1 5.4-4.9 6-2.6.5-5.2-.5-6.6-2.7-1.8-2.7-1.1-6.4 1.5-8.3 1.3-1 2.8-1.3 4.4-1.2.2 0 .3.1.3.3v2.9q0 .2-.2.1c-1.6-.4-3.3.6-3.6 2.2s.7 3.2 2.4 3.5c1.8.3 3.5-1.1 3.5-2.9v-13.6c0-.3 0-.2.2-.2h2.8c.2 0 .2.1.3.2.1 1.9 1.1 3.3 2.7 4.2.7.4 1.4.5 2.1.6.1 0 .2 0 .2.2v2.9q0 .2-.2.2c-1.7 0-3.2-.6-4.6-1.5-.2-.1-.2-.2-.3-.2z" fill="url(#i)"/><path d="m188.5 47.48q-.1 0 0 0c-.2-.1-.3-.2-.3-.4v-8.1c0-.1-.1-.2-.2-.2h-2.4c-.3 0-.4-.2-.4-.5v-3.1c0-.3.2-.5.5-.5h2.4q.1 0 .1-.1v-2.3c0-1 .2-1.8.7-2.7.5-.8 1.2-1.4 2.2-1.8.7-.2 1.4-.3 2.1-.3h2.5c.2.1.3.2.3.3v3.1c0 .3-.2.4-.4.4h-2.2c-.2 0-.3.1-.5.1-.3.2-.4.4-.4.7-.1.8 0 1.6 0 2.3 0 .1.1.1.1.1h2.8c.4 0 .6.2.6.6v3.1c0 .4-.2.5-.5.5h-2.8q-.1 0-.1.1v8.2c0 .2-.1.3-.3.4h-.1z" fill="url(#j)"/></g><path d="m26.13 79.4-8.15-11.83 7.27-8.43-1.51-.21-6.51 7.55-5.27-7.65h-5.89l7.91 11.43-7.69 8.92 1.58.13 6.86-7.96 5.36 7.75 6.04.31zm-17.41-19.19h2.51l5.06 7.35-1.38 1.6zm8.32 8.44 6.34 9.21-2.54-.13-5.18-7.48z" fill="url(#k)"/><path d="m25.7 110.77-8.15-11.83 7.27-8.43-1.51-.21-6.51 7.55-5.27-7.65h-5.89l7.91 11.43-7.69 8.92 1.58.13 6.86-7.96 5.36 7.75 6.04.31zm-17.41-19.19h2.51l5.06 7.35-1.38 1.6zm8.32 8.44 6.34 9.21-2.54-.13-5.18-7.48z" fill="url(#l)" opacity=".8"/><g clip-path="url(#m)"><path d="m67.86 74.28c-.61.48-1.35.72-2.09.72s-1.48-.24-2.09-.72l-2.63-2.08-8.93 8.35h27.29l-8.93-8.35-2.63 2.08z" fill="url(#n)"/><path d="m80.95 79.11v-15.2l-8.8 6.97z" fill="url(#o)"/><path d="m50.6 63.91v15.2l8.8-8.23z" fill="url(#p)"/><path d="m79.83 59.98h-28.11c-.62 0-1.12.47-1.12 1.05v.22l.59.47 13.9 11.01c.4.32.98.32 1.37 0l13.9-11.02.59-.47v-.22c0-.58-.5-1.05-1.12-1.05z" fill="url(#q)"/></g><g clip-path="url(#r)" opacity=".8"><path d="m64.69 108.64c-.61.48-1.35.72-2.09.72s-1.48-.24-2.09-.72l-2.63-2.08-8.93 8.35h27.29l-8.93-8.35-2.63 2.08z" fill="url(#s)"/><path d="m77.77 113.48v-15.2l-8.8 6.97z" fill="url(#t)"/><path d="m47.42 98.27v15.2l8.8-8.23z" fill="url(#u)"/><path d="m76.65 94.35h-28.11c-.62 0-1.12.47-1.12 1.05v.22l.59.47 13.9 11.01c.4.32.98.32 1.37 0l13.9-11.02.59-.47v-.22c0-.58-.5-1.05-1.12-1.05z" fill="url(#v)"/></g></svg>